<?xml version="1.0" encoding="UTF-8" standalone="no"?>
<!DOCTYPE svg PUBLIC "-//W3C//DTD SVG 1.1//EN"
 "http://www.w3.org/Graphics/SVG/1.1/DTD/svg11.dtd">
<!-- Generated by graphviz version 12.2.1 (20241206.2353)
 -->
<!-- Title: ComputationalGraph Pages: 1 -->
<svg width="1032pt" height="796pt"
 viewBox="0.00 0.00 1032.00 795.50" xmlns="http://www.w3.org/2000/svg" xmlns:xlink="http://www.w3.org/1999/xlink">
<g id="graph0" class="graph" transform="scale(1 1) rotate(0) translate(4 791.5)">
<title>ComputationalGraph</title>
<polygon fill="white" stroke="none" points="-4,4 -4,-791.5 1028,-791.5 1028,4 -4,4"/>
<g id="clust1" class="cluster">
<title>cluster_layer_0</title>
</g>
<g id="clust2" class="cluster">
<title>cluster_layer_1</title>
</g>
<g id="clust3" class="cluster">
<title>cluster_layer_2</title>
</g>
<g id="clust4" class="cluster">
<title>cluster_layer_3</title>
</g>
<g id="clust5" class="cluster">
<title>cluster_layer_4</title>
</g>
<g id="clust6" class="cluster">
<title>cluster_layer_5</title>
</g>
<g id="clust7" class="cluster">
<title>cluster_layer_6</title>
</g>
<g id="clust8" class="cluster">
<title>cluster_layer_7</title>
</g>
<!-- node_0x6080000004b8 -->
<g id="node1" class="node">
<title>node_0x6080000004b8</title>
<polygon fill="#f8f8f8" stroke="black" stroke-width="2" points="16.25,-723.5 16.25,-771 111.75,-771 111.75,-723.5 16.25,-723.5"/>
<text text-anchor="middle" x="64" y="-753.7" font-family="Arial" font-size="14.00">data: &#45;0.7369</text>
<polyline fill="none" stroke="black" stroke-width="2" points="16.25,-747.25 111.75,-747.25"/>
<text text-anchor="middle" x="64" y="-729.95" font-family="Arial" font-size="14.00">grad: 0.0000</text>
</g>
<!-- node_0x6080000005b8 -->
<g id="node10" class="node">
<title>node_0x6080000005b8</title>
<polygon fill="#f8f8f8" stroke="black" stroke-width="2" points="167.25,-622.5 167.25,-670 262.75,-670 262.75,-622.5 167.25,-622.5"/>
<text text-anchor="middle" x="215" y="-652.7" font-family="Arial" font-size="14.00">data: &#45;0.7369</text>
<polyline fill="none" stroke="black" stroke-width="2" points="167.25,-646.25 262.75,-646.25"/>
<text text-anchor="middle" x="215" y="-628.95" font-family="Arial" font-size="14.00">grad: 0.0000</text>
</g>
<!-- node_0x6080000004b8&#45;&gt;node_0x6080000005b8 -->
<g id="edge2" class="edge">
<title>node_0x6080000004b8&#45;&gt;node_0x6080000005b8</title>
<path fill="none" stroke="#666666" d="M82.53,-722.7C92.42,-711.27 105.36,-697.99 119,-688.5 130.4,-680.57 143.56,-673.7 156.42,-667.95"/>
<polygon fill="#666666" stroke="#666666" points="157.41,-671.34 165.23,-664.19 154.66,-664.9 157.41,-671.34"/>
<text text-anchor="middle" x="153.5" y="-691.7" font-family="Times,serif" font-size="14.00">grad: 0.0000</text>
</g>
<!-- node_0x608000000538 -->
<g id="node2" class="node">
<title>node_0x608000000538</title>
<polygon fill="#f8f8f8" stroke="black" stroke-width="2" points="130.12,-723.5 130.12,-771 221.88,-771 221.88,-723.5 130.12,-723.5"/>
<text text-anchor="middle" x="176" y="-753.7" font-family="Arial" font-size="14.00">data: 1.0000</text>
<polyline fill="none" stroke="black" stroke-width="2" points="130.12,-747.25 221.88,-747.25"/>
<text text-anchor="middle" x="176" y="-729.95" font-family="Arial" font-size="14.00">grad: 0.0000</text>
</g>
<!-- node_0x608000000538&#45;&gt;node_0x6080000005b8 -->
<g id="edge3" class="edge">
<title>node_0x608000000538&#45;&gt;node_0x6080000005b8</title>
<path fill="none" stroke="#666666" d="M184.85,-722.59C188.81,-712.12 193.57,-699.67 198,-688.5 198.93,-686.16 199.89,-683.75 200.87,-681.32"/>
<polygon fill="#666666" stroke="#666666" points="204.07,-682.75 204.61,-672.17 197.59,-680.1 204.07,-682.75"/>
<text text-anchor="middle" x="232.5" y="-691.7" font-family="Times,serif" font-size="14.00">grad: 0.0000</text>
</g>
<!-- node_0x608000000638 -->
<g id="node3" class="node">
<title>node_0x608000000638</title>
<polygon fill="#f8f8f8" stroke="black" stroke-width="2" points="464.25,-723.5 464.25,-771 559.75,-771 559.75,-723.5 464.25,-723.5"/>
<text text-anchor="middle" x="512" y="-753.7" font-family="Arial" font-size="14.00">data: &#45;1.0000</text>
<polyline fill="none" stroke="black" stroke-width="2" points="464.25,-747.25 559.75,-747.25"/>
<text text-anchor="middle" x="512" y="-729.95" font-family="Arial" font-size="14.00">grad: 0.0000</text>
</g>
<!-- node_0x6080000006b8 -->
<g id="node12" class="node">
<title>node_0x6080000006b8</title>
<polygon fill="#f8f8f8" stroke="black" stroke-width="2" points="464.25,-521.5 464.25,-569 559.75,-569 559.75,-521.5 464.25,-521.5"/>
<text text-anchor="middle" x="512" y="-551.7" font-family="Arial" font-size="14.00">data: &#45;1.7369</text>
<polyline fill="none" stroke="black" stroke-width="2" points="464.25,-545.25 559.75,-545.25"/>
<text text-anchor="middle" x="512" y="-527.95" font-family="Arial" font-size="14.00">grad: 0.0000</text>
</g>
<!-- node_0x608000000638&#45;&gt;node_0x6080000006b8 -->
<g id="edge5" class="edge">
<title>node_0x608000000638&#45;&gt;node_0x6080000006b8</title>
<path fill="none" stroke="#666666" d="M512,-722.52C512,-687.56 512,-621.99 512,-581.42"/>
<polygon fill="#666666" stroke="#666666" points="515.5,-581.46 512,-571.46 508.5,-581.46 515.5,-581.46"/>
<text text-anchor="middle" x="546.5" y="-641.2" font-family="Times,serif" font-size="14.00">grad: 0.0000</text>
</g>
<!-- node_0x608000000738 -->
<g id="node4" class="node">
<title>node_0x608000000738</title>
<polygon fill="#f8f8f8" stroke="black" stroke-width="2" points="240.25,-723.5 240.25,-771 335.75,-771 335.75,-723.5 240.25,-723.5"/>
<text text-anchor="middle" x="288" y="-753.7" font-family="Arial" font-size="14.00">data: &#45;0.0827</text>
<polyline fill="none" stroke="black" stroke-width="2" points="240.25,-747.25 335.75,-747.25"/>
<text text-anchor="middle" x="288" y="-729.95" font-family="Arial" font-size="14.00">grad: 0.0000</text>
</g>
<!-- node_0x608000000838 -->
<g id="node11" class="node">
<title>node_0x608000000838</title>
<polygon fill="#f8f8f8" stroke="black" stroke-width="2" points="281.25,-622.5 281.25,-670 376.75,-670 376.75,-622.5 281.25,-622.5"/>
<text text-anchor="middle" x="329" y="-652.7" font-family="Arial" font-size="14.00">data: &#45;0.0827</text>
<polyline fill="none" stroke="black" stroke-width="2" points="281.25,-646.25 376.75,-646.25"/>
<text text-anchor="middle" x="329" y="-628.95" font-family="Arial" font-size="14.00">grad: 0.0000</text>
</g>
<!-- node_0x608000000738&#45;&gt;node_0x608000000838 -->
<g id="edge6" class="edge">
<title>node_0x608000000738&#45;&gt;node_0x608000000838</title>
<path fill="none" stroke="#666666" d="M290.13,-722.51C291.69,-711.8 294.38,-699.18 299,-688.5 300.21,-685.7 301.64,-682.91 303.2,-680.17"/>
<polygon fill="#666666" stroke="#666666" points="306.08,-682.18 308.51,-671.87 300.18,-678.41 306.08,-682.18"/>
<text text-anchor="middle" x="333.5" y="-691.7" font-family="Times,serif" font-size="14.00">grad: 0.0000</text>
</g>
<!-- node_0x6080000007b8 -->
<g id="node5" class="node">
<title>node_0x6080000007b8</title>
<polygon fill="#f8f8f8" stroke="black" stroke-width="2" points="354.12,-723.5 354.12,-771 445.88,-771 445.88,-723.5 354.12,-723.5"/>
<text text-anchor="middle" x="400" y="-753.7" font-family="Arial" font-size="14.00">data: 1.0000</text>
<polyline fill="none" stroke="black" stroke-width="2" points="354.12,-747.25 445.88,-747.25"/>
<text text-anchor="middle" x="400" y="-729.95" font-family="Arial" font-size="14.00">grad: 0.0000</text>
</g>
<!-- node_0x6080000007b8&#45;&gt;node_0x608000000838 -->
<g id="edge7" class="edge">
<title>node_0x6080000007b8&#45;&gt;node_0x608000000838</title>
<path fill="none" stroke="#666666" d="M388.65,-722.67C383.03,-711.87 375.78,-699.14 368,-688.5 365.72,-685.38 363.22,-682.25 360.63,-679.19"/>
<polygon fill="#666666" stroke="#666666" points="363.43,-677.07 354.17,-671.92 358.2,-681.72 363.43,-677.07"/>
<text text-anchor="middle" x="412.48" y="-691.7" font-family="Times,serif" font-size="14.00">grad: 0.0000</text>
</g>
<!-- node_0x6080000008b8 -->
<g id="node6" class="node">
<title>node_0x6080000008b8</title>
<polygon fill="#f8f8f8" stroke="black" stroke-width="2" points="578.12,-723.5 578.12,-771 669.88,-771 669.88,-723.5 578.12,-723.5"/>
<text text-anchor="middle" x="624" y="-753.7" font-family="Arial" font-size="14.00">data: 0.5112</text>
<polyline fill="none" stroke="black" stroke-width="2" points="578.12,-747.25 669.88,-747.25"/>
<text text-anchor="middle" x="624" y="-729.95" font-family="Arial" font-size="14.00">grad: 0.0000</text>
</g>
<!-- node_0x608000000938 -->
<g id="node13" class="node">
<title>node_0x608000000938</title>
<polygon fill="#f8f8f8" stroke="black" stroke-width="2" points="578.12,-521.5 578.12,-569 669.88,-569 669.88,-521.5 578.12,-521.5"/>
<text text-anchor="middle" x="624" y="-551.7" font-family="Arial" font-size="14.00">data: 0.4285</text>
<polyline fill="none" stroke="black" stroke-width="2" points="578.12,-545.25 669.88,-545.25"/>
<text text-anchor="middle" x="624" y="-527.95" font-family="Arial" font-size="14.00">grad: 0.0000</text>
</g>
<!-- node_0x6080000008b8&#45;&gt;node_0x608000000938 -->
<g id="edge9" class="edge">
<title>node_0x6080000008b8&#45;&gt;node_0x608000000938</title>
<path fill="none" stroke="#666666" d="M624,-722.52C624,-687.56 624,-621.99 624,-581.42"/>
<polygon fill="#666666" stroke="#666666" points="627.5,-581.46 624,-571.46 620.5,-581.46 627.5,-581.46"/>
<text text-anchor="middle" x="658.5" y="-641.2" font-family="Times,serif" font-size="14.00">grad: 0.0000</text>
</g>
<!-- node_0x6080000009b8 -->
<g id="node7" class="node">
<title>node_0x6080000009b8</title>
<polygon fill="#f8f8f8" stroke="black" stroke-width="2" points="688.25,-723.5 688.25,-771 783.75,-771 783.75,-723.5 688.25,-723.5"/>
<text text-anchor="middle" x="736" y="-753.7" font-family="Arial" font-size="14.00">data: &#45;0.5621</text>
<polyline fill="none" stroke="black" stroke-width="2" points="688.25,-747.25 783.75,-747.25"/>
<text text-anchor="middle" x="736" y="-729.95" font-family="Arial" font-size="14.00">grad: 0.0000</text>
</g>
<!-- node_0x608000000bb8 -->
<g id="node16" class="node">
<title>node_0x608000000bb8</title>
<polygon fill="#f8f8f8" stroke="black" stroke-width="2" points="690.12,-319.5 690.12,-367 781.88,-367 781.88,-319.5 690.12,-319.5"/>
<text text-anchor="middle" x="736" y="-349.7" font-family="Arial" font-size="14.00">data: 0.5283</text>
<polyline fill="none" stroke="black" stroke-width="2" points="690.12,-343.25 781.88,-343.25"/>
<text text-anchor="middle" x="736" y="-325.95" font-family="Arial" font-size="14.00">grad: 0.0000</text>
</g>
<!-- node_0x6080000009b8&#45;&gt;node_0x608000000bb8 -->
<g id="edge12" class="edge">
<title>node_0x6080000009b8&#45;&gt;node_0x608000000bb8</title>
<path fill="none" stroke="#666666" d="M736,-722.65C736,-702.59 736,-673.03 736,-647.25 736,-647.25 736,-647.25 736,-443.25 736,-422 736,-398.19 736,-379.24"/>
<polygon fill="#666666" stroke="#666666" points="739.5,-379.37 736,-369.37 732.5,-379.37 739.5,-379.37"/>
<text text-anchor="middle" x="770.5" y="-540.2" font-family="Times,serif" font-size="14.00">grad: 0.0000</text>
</g>
<!-- node_0x608000000ab8 -->
<g id="node8" class="node">
<title>node_0x608000000ab8</title>
<polygon fill="#f8f8f8" stroke="black" stroke-width="2" points="802.25,-723.5 802.25,-771 897.75,-771 897.75,-723.5 802.25,-723.5"/>
<text text-anchor="middle" x="850" y="-753.7" font-family="Arial" font-size="14.00">data: &#45;0.9059</text>
<polyline fill="none" stroke="black" stroke-width="2" points="802.25,-747.25 897.75,-747.25"/>
<text text-anchor="middle" x="850" y="-729.95" font-family="Arial" font-size="14.00">grad: 0.0000</text>
</g>
<!-- node_0x608000000c38 -->
<g id="node17" class="node">
<title>node_0x608000000c38</title>
<polygon fill="#f8f8f8" stroke="black" stroke-width="2" points="800.25,-319.5 800.25,-367 895.75,-367 895.75,-319.5 800.25,-319.5"/>
<text text-anchor="middle" x="848" y="-349.7" font-family="Arial" font-size="14.00">data: &#45;0.3661</text>
<polyline fill="none" stroke="black" stroke-width="2" points="800.25,-343.25 895.75,-343.25"/>
<text text-anchor="middle" x="848" y="-325.95" font-family="Arial" font-size="14.00">grad: 0.0000</text>
</g>
<!-- node_0x608000000ab8&#45;&gt;node_0x608000000c38 -->
<g id="edge14" class="edge">
<title>node_0x608000000ab8&#45;&gt;node_0x608000000c38</title>
<path fill="none" stroke="#666666" d="M849.63,-722.65C849.34,-702.59 849,-673.03 849,-647.25 849,-647.25 849,-647.25 849,-443.25 849,-422 848.77,-398.18 848.53,-379.24"/>
<polygon fill="#666666" stroke="#666666" points="852.03,-379.32 848.39,-369.37 845.03,-379.41 852.03,-379.32"/>
<text text-anchor="middle" x="883.5" y="-540.2" font-family="Times,serif" font-size="14.00">grad: 0.0000</text>
</g>
<!-- node_0x608000000d38 -->
<g id="node9" class="node">
<title>node_0x608000000d38</title>
<polygon fill="#f8f8f8" stroke="black" stroke-width="2" points="916.12,-723.5 916.12,-771 1007.88,-771 1007.88,-723.5 916.12,-723.5"/>
<text text-anchor="middle" x="962" y="-753.7" font-family="Arial" font-size="14.00">data: 0.0655</text>
<polyline fill="none" stroke="black" stroke-width="2" points="916.12,-747.25 1007.88,-747.25"/>
<text text-anchor="middle" x="962" y="-729.95" font-family="Arial" font-size="14.00">grad: 0.0000</text>
</g>
<!-- node_0x608000000db8 -->
<g id="node19" class="node">
<title>node_0x608000000db8</title>
<polygon fill="#f8f8f8" stroke="black" stroke-width="2" points="860.12,-117.5 860.12,-165 951.88,-165 951.88,-117.5 860.12,-117.5"/>
<text text-anchor="middle" x="906" y="-147.7" font-family="Arial" font-size="14.00">data: 0.2278</text>
<polyline fill="none" stroke="black" stroke-width="2" points="860.12,-141.25 951.88,-141.25"/>
<text text-anchor="middle" x="906" y="-123.95" font-family="Arial" font-size="14.00">grad: 0.0000</text>
</g>
<!-- node_0x608000000d38&#45;&gt;node_0x608000000db8 -->
<g id="edge19" class="edge">
<title>node_0x608000000d38&#45;&gt;node_0x608000000db8</title>
<path fill="none" stroke="#666666" d="M958.65,-722.7C956.09,-702.68 953,-673.14 953,-647.25 953,-647.25 953,-647.25 953,-241.25 953,-214.84 950.64,-207.21 939,-183.5 937.65,-180.74 936.08,-177.99 934.38,-175.31"/>
<polygon fill="#666666" stroke="#666666" points="937.27,-173.33 928.66,-167.15 931.54,-177.35 937.27,-173.33"/>
<text text-anchor="middle" x="987.5" y="-439.2" font-family="Times,serif" font-size="14.00">grad: 0.0000</text>
</g>
<!-- node_0x6080000005b8&#45;&gt;node_0x6080000006b8 -->
<g id="edge4" class="edge">
<title>node_0x6080000005b8&#45;&gt;node_0x6080000006b8</title>
<path fill="none" stroke="#666666" d="M255.55,-621.58C260.99,-618.83 266.57,-616.22 272,-614 331.67,-589.59 403.12,-570.66 452.46,-559.09"/>
<polygon fill="#666666" stroke="#666666" points="453.14,-562.52 462.1,-556.86 451.57,-555.7 453.14,-562.52"/>
<text text-anchor="middle" x="377.43" y="-590.7" font-family="Times,serif" font-size="14.00">grad: 0.0000</text>
</g>
<!-- node_0x608000000838&#45;&gt;node_0x608000000938 -->
<g id="edge8" class="edge">
<title>node_0x608000000838&#45;&gt;node_0x608000000938</title>
<path fill="none" stroke="#666666" d="M377.59,-632.21C442.44,-614.7 551.25,-584.92 569,-577.5 570.98,-576.67 572.97,-575.79 574.97,-574.87"/>
<polygon fill="#666666" stroke="#666666" points="576.14,-578.19 583.57,-570.63 573.05,-571.91 576.14,-578.19"/>
<text text-anchor="middle" x="568.72" y="-590.7" font-family="Times,serif" font-size="14.00">grad: 0.0000</text>
</g>
<!-- node_0x608000000a38 -->
<g id="node14" class="node">
<title>node_0x608000000a38</title>
<polygon fill="#f8f8f8" stroke="black" stroke-width="2" points="487.25,-420.5 487.25,-468 582.75,-468 582.75,-420.5 487.25,-420.5"/>
<text text-anchor="middle" x="535" y="-450.7" font-family="Arial" font-size="14.00">data: &#45;0.9399</text>
<polyline fill="none" stroke="black" stroke-width="2" points="487.25,-444.25 582.75,-444.25"/>
<text text-anchor="middle" x="535" y="-426.95" font-family="Arial" font-size="14.00">grad: 0.0000</text>
</g>
<!-- node_0x6080000006b8&#45;&gt;node_0x608000000a38 -->
<g id="edge10" class="edge">
<title>node_0x6080000006b8&#45;&gt;node_0x608000000a38</title>
<path fill="none" stroke="#666666" d="M517.51,-520.54C520.35,-508.29 523.88,-493.13 527.01,-479.62"/>
<polygon fill="#666666" stroke="#666666" points="530.34,-480.78 529.19,-470.24 523.52,-479.19 530.34,-480.78"/>
<text text-anchor="middle" x="559.38" y="-489.7" font-family="Times,serif" font-size="14.00">grad: 0.0000</text>
</g>
<!-- node_0x608000000b38 -->
<g id="node15" class="node">
<title>node_0x608000000b38</title>
<polygon fill="#f8f8f8" stroke="black" stroke-width="2" points="601.12,-420.5 601.12,-468 692.88,-468 692.88,-420.5 601.12,-420.5"/>
<text text-anchor="middle" x="647" y="-450.7" font-family="Arial" font-size="14.00">data: 0.4041</text>
<polyline fill="none" stroke="black" stroke-width="2" points="601.12,-444.25 692.88,-444.25"/>
<text text-anchor="middle" x="647" y="-426.95" font-family="Arial" font-size="14.00">grad: 0.0000</text>
</g>
<!-- node_0x608000000938&#45;&gt;node_0x608000000b38 -->
<g id="edge11" class="edge">
<title>node_0x608000000938&#45;&gt;node_0x608000000b38</title>
<path fill="none" stroke="#666666" d="M629.51,-520.54C632.35,-508.29 635.88,-493.13 639.01,-479.62"/>
<polygon fill="#666666" stroke="#666666" points="642.34,-480.78 641.19,-470.24 635.52,-479.19 642.34,-480.78"/>
<text text-anchor="middle" x="671.38" y="-489.7" font-family="Times,serif" font-size="14.00">grad: 0.0000</text>
</g>
<!-- node_0x608000000a38&#45;&gt;node_0x608000000bb8 -->
<g id="edge13" class="edge">
<title>node_0x608000000a38&#45;&gt;node_0x608000000bb8</title>
<path fill="none" stroke="#666666" d="M539.45,-419.67C542.87,-407.8 548.81,-394.13 559,-385.5 591.94,-357.59 640.24,-347.73 678.07,-344.6"/>
<polygon fill="#666666" stroke="#666666" points="678.19,-348.1 687.93,-343.93 677.72,-341.11 678.19,-348.1"/>
<text text-anchor="middle" x="593.5" y="-388.7" font-family="Times,serif" font-size="14.00">grad: 0.0000</text>
</g>
<!-- node_0x608000000b38&#45;&gt;node_0x608000000c38 -->
<g id="edge15" class="edge">
<title>node_0x608000000b38&#45;&gt;node_0x608000000c38</title>
<path fill="none" stroke="#666666" d="M693.84,-419.57C715.61,-408.8 741.95,-396.13 766,-385.5 776.95,-380.66 780.18,-380.61 791,-375.5 792.72,-374.69 794.46,-373.85 796.21,-372.99"/>
<polygon fill="#666666" stroke="#666666" points="797.59,-376.21 804.92,-368.56 794.42,-369.97 797.59,-376.21"/>
<text text-anchor="middle" x="800.5" y="-388.7" font-family="Times,serif" font-size="14.00">grad: 0.0000</text>
</g>
<!-- node_0x608000000cb8 -->
<g id="node18" class="node">
<title>node_0x608000000cb8</title>
<polygon fill="#f8f8f8" stroke="black" stroke-width="2" points="802.12,-218.5 802.12,-266 893.88,-266 893.88,-218.5 802.12,-218.5"/>
<text text-anchor="middle" x="848" y="-248.7" font-family="Arial" font-size="14.00">data: 0.1622</text>
<polyline fill="none" stroke="black" stroke-width="2" points="802.12,-242.25 893.88,-242.25"/>
<text text-anchor="middle" x="848" y="-224.95" font-family="Arial" font-size="14.00">grad: 0.0000</text>
</g>
<!-- node_0x608000000bb8&#45;&gt;node_0x608000000cb8 -->
<g id="edge16" class="edge">
<title>node_0x608000000bb8&#45;&gt;node_0x608000000cb8</title>
<path fill="none" stroke="#666666" d="M748.47,-318.73C755.25,-307.43 764.42,-294.27 775,-284.5 780.12,-279.77 785.89,-275.36 791.87,-271.33"/>
<polygon fill="#666666" stroke="#666666" points="793.54,-274.42 800.11,-266.11 789.79,-268.5 793.54,-274.42"/>
<text text-anchor="middle" x="809.5" y="-287.7" font-family="Times,serif" font-size="14.00">grad: 0.0000</text>
</g>
<!-- node_0x608000000c38&#45;&gt;node_0x608000000cb8 -->
<g id="edge17" class="edge">
<title>node_0x608000000c38&#45;&gt;node_0x608000000cb8</title>
<path fill="none" stroke="#666666" d="M848,-318.54C848,-306.41 848,-291.43 848,-278.03"/>
<polygon fill="#666666" stroke="#666666" points="851.5,-278.28 848,-268.28 844.5,-278.28 851.5,-278.28"/>
<text text-anchor="middle" x="882.5" y="-287.7" font-family="Times,serif" font-size="14.00">grad: 0.0000</text>
</g>
<!-- node_0x608000000cb8&#45;&gt;node_0x608000000db8 -->
<g id="edge18" class="edge">
<title>node_0x608000000cb8&#45;&gt;node_0x608000000db8</title>
<path fill="none" stroke="#666666" d="M854.89,-217.62C858.56,-206.81 863.65,-194.08 870,-183.5 871.86,-180.4 873.96,-177.32 876.19,-174.31"/>
<polygon fill="#666666" stroke="#666666" points="878.72,-176.75 882.21,-166.75 873.24,-172.39 878.72,-176.75"/>
<text text-anchor="middle" x="904.5" y="-186.7" font-family="Times,serif" font-size="14.00">grad: 0.0000</text>
</g>
<!-- node_0x6070000002c0 -->
<g id="node20" class="node">
<title>node_0x6070000002c0</title>
<polygon fill="#ff6b6b" stroke="black" stroke-width="2" points="857.88,-16.5 857.88,-64 954.12,-64 954.12,-16.5 857.88,-16.5"/>
<text text-anchor="middle" x="906" y="-46.7" font-family="Arial" font-size="14.00">data: 0.2239</text>
<polyline fill="none" stroke="black" stroke-width="2" points="857.88,-40.25 954.12,-40.25"/>
<text text-anchor="middle" x="906" y="-22.95" font-family="Arial" font-size="14.00">grad: &#45;3.5522</text>
</g>
<!-- node_0x608000000db8&#45;&gt;node_0x6070000002c0 -->
<g id="edge1" class="edge">
<title>node_0x608000000db8&#45;&gt;node_0x6070000002c0</title>
<path fill="none" stroke="#666666" d="M906,-116.54C906,-104.41 906,-89.43 906,-76.03"/>
<polygon fill="#666666" stroke="#666666" points="909.5,-76.28 906,-66.28 902.5,-76.28 909.5,-76.28"/>
<text text-anchor="middle" x="940.5" y="-85.7" font-family="Times,serif" font-size="14.00">grad: 0.0000</text>
</g>
</g>
</svg>
