<?xml version="1.0" encoding="UTF-8" standalone="no"?>
<!DOCTYPE svg PUBLIC "-//W3C//DTD SVG 1.1//EN"
 "http://www.w3.org/Graphics/SVG/1.1/DTD/svg11.dtd">
<!-- Generated by graphviz version 12.2.1 (20241206.2353)
 -->
<!-- Title: ComputationalGraph Pages: 1 -->
<svg width="1048pt" height="796pt"
 viewBox="0.00 0.00 1047.50 795.50" xmlns="http://www.w3.org/2000/svg" xmlns:xlink="http://www.w3.org/1999/xlink">
<g id="graph0" class="graph" transform="scale(1 1) rotate(0) translate(4 791.5)">
<title>ComputationalGraph</title>
<polygon fill="white" stroke="none" points="-4,4 -4,-791.5 1043.5,-791.5 1043.5,4 -4,4"/>
<g id="clust1" class="cluster">
<title>cluster_layer_0</title>
</g>
<g id="clust2" class="cluster">
<title>cluster_layer_1</title>
</g>
<g id="clust3" class="cluster">
<title>cluster_layer_2</title>
</g>
<g id="clust4" class="cluster">
<title>cluster_layer_3</title>
</g>
<g id="clust5" class="cluster">
<title>cluster_layer_4</title>
</g>
<g id="clust6" class="cluster">
<title>cluster_layer_5</title>
</g>
<g id="clust7" class="cluster">
<title>cluster_layer_6</title>
</g>
<g id="clust8" class="cluster">
<title>cluster_layer_7</title>
</g>
<!-- node_0x6080000004b8 -->
<g id="node1" class="node">
<title>node_0x6080000004b8</title>
<polygon fill="#fff0f0" stroke="black" stroke-width="2" points="16.25,-723.5 16.25,-771 111.75,-771 111.75,-723.5 16.25,-723.5"/>
<text text-anchor="middle" x="64" y="-753.7" font-family="Arial" font-size="14.00">data: &#45;0.7369</text>
<polyline fill="none" stroke="black" stroke-width="2" points="16.25,-747.25 111.75,-747.25"/>
<text text-anchor="middle" x="64" y="-729.95" font-family="Arial" font-size="14.00">grad: 0.2212</text>
</g>
<!-- node_0x6080000005b8 -->
<g id="node10" class="node">
<title>node_0x6080000005b8</title>
<polygon fill="#fff0f0" stroke="black" stroke-width="2" points="155.25,-622.5 155.25,-670 250.75,-670 250.75,-622.5 155.25,-622.5"/>
<text text-anchor="middle" x="203" y="-652.7" font-family="Arial" font-size="14.00">data: &#45;0.7369</text>
<polyline fill="none" stroke="black" stroke-width="2" points="155.25,-646.25 250.75,-646.25"/>
<text text-anchor="middle" x="203" y="-628.95" font-family="Arial" font-size="14.00">grad: 0.2212</text>
</g>
<!-- node_0x6080000004b8&#45;&gt;node_0x6080000005b8 -->
<g id="edge2" class="edge">
<title>node_0x6080000004b8&#45;&gt;node_0x6080000005b8</title>
<path fill="none" stroke="#666666" d="M81.68,-722.58C90.98,-711.24 103.12,-698.09 116,-688.5 124.66,-682.05 134.48,-676.23 144.33,-671.13"/>
<polygon fill="#666666" stroke="#666666" points="145.79,-674.32 153.21,-666.76 142.69,-668.04 145.79,-674.32"/>
<text text-anchor="middle" x="150.5" y="-691.7" font-family="Times,serif" font-size="14.00">grad: 0.2212</text>
</g>
<!-- node_0x608000000538 -->
<g id="node2" class="node">
<title>node_0x608000000538</title>
<polygon fill="#fff0f0" stroke="black" stroke-width="2" points="129.88,-723.5 129.88,-771 226.12,-771 226.12,-723.5 129.88,-723.5"/>
<text text-anchor="middle" x="178" y="-753.7" font-family="Arial" font-size="14.00">data: 1.0000</text>
<polyline fill="none" stroke="black" stroke-width="2" points="129.88,-747.25 226.12,-747.25"/>
<text text-anchor="middle" x="178" y="-729.95" font-family="Arial" font-size="14.00">grad: &#45;0.1630</text>
</g>
<!-- node_0x608000000538&#45;&gt;node_0x6080000005b8 -->
<g id="edge3" class="edge">
<title>node_0x608000000538&#45;&gt;node_0x6080000005b8</title>
<path fill="none" stroke="#666666" d="M183.99,-722.54C187.08,-710.29 190.91,-695.13 194.32,-681.62"/>
<polygon fill="#666666" stroke="#666666" points="197.64,-682.79 196.69,-672.24 190.85,-681.08 197.64,-682.79"/>
<text text-anchor="middle" x="228.75" y="-691.7" font-family="Times,serif" font-size="14.00">grad: &#45;0.1630</text>
</g>
<!-- node_0x608000000638 -->
<g id="node3" class="node">
<title>node_0x608000000638</title>
<polygon fill="#fff0f0" stroke="black" stroke-width="2" points="472.25,-723.5 472.25,-771 567.75,-771 567.75,-723.5 472.25,-723.5"/>
<text text-anchor="middle" x="520" y="-753.7" font-family="Arial" font-size="14.00">data: &#45;1.0000</text>
<polyline fill="none" stroke="black" stroke-width="2" points="472.25,-747.25 567.75,-747.25"/>
<text text-anchor="middle" x="520" y="-729.95" font-family="Arial" font-size="14.00">grad: 0.2212</text>
</g>
<!-- node_0x6080000006b8 -->
<g id="node12" class="node">
<title>node_0x6080000006b8</title>
<polygon fill="#fff0f0" stroke="black" stroke-width="2" points="472.25,-521.5 472.25,-569 567.75,-569 567.75,-521.5 472.25,-521.5"/>
<text text-anchor="middle" x="520" y="-551.7" font-family="Arial" font-size="14.00">data: &#45;1.7369</text>
<polyline fill="none" stroke="black" stroke-width="2" points="472.25,-545.25 567.75,-545.25"/>
<text text-anchor="middle" x="520" y="-527.95" font-family="Arial" font-size="14.00">grad: 0.2212</text>
</g>
<!-- node_0x608000000638&#45;&gt;node_0x6080000006b8 -->
<g id="edge5" class="edge">
<title>node_0x608000000638&#45;&gt;node_0x6080000006b8</title>
<path fill="none" stroke="#666666" d="M520,-722.52C520,-687.56 520,-621.99 520,-581.42"/>
<polygon fill="#666666" stroke="#666666" points="523.5,-581.46 520,-571.46 516.5,-581.46 523.5,-581.46"/>
<text text-anchor="middle" x="554.5" y="-641.2" font-family="Times,serif" font-size="14.00">grad: 0.2212</text>
</g>
<!-- node_0x608000000738 -->
<g id="node4" class="node">
<title>node_0x608000000738</title>
<polygon fill="#ff6b6b" stroke="black" stroke-width="2" points="244.25,-723.5 244.25,-771 339.75,-771 339.75,-723.5 244.25,-723.5"/>
<text text-anchor="middle" x="292" y="-753.7" font-family="Arial" font-size="14.00">data: &#45;0.0827</text>
<polyline fill="none" stroke="black" stroke-width="2" points="244.25,-747.25 339.75,-747.25"/>
<text text-anchor="middle" x="292" y="-729.95" font-family="Arial" font-size="14.00">grad: 2.5576</text>
</g>
<!-- node_0x608000000838 -->
<g id="node11" class="node">
<title>node_0x608000000838</title>
<polygon fill="#ff6b6b" stroke="black" stroke-width="2" points="269.25,-622.5 269.25,-670 364.75,-670 364.75,-622.5 269.25,-622.5"/>
<text text-anchor="middle" x="317" y="-652.7" font-family="Arial" font-size="14.00">data: &#45;0.0827</text>
<polyline fill="none" stroke="black" stroke-width="2" points="269.25,-646.25 364.75,-646.25"/>
<text text-anchor="middle" x="317" y="-628.95" font-family="Arial" font-size="14.00">grad: 2.5576</text>
</g>
<!-- node_0x608000000738&#45;&gt;node_0x608000000838 -->
<g id="edge6" class="edge">
<title>node_0x608000000738&#45;&gt;node_0x608000000838</title>
<path fill="none" stroke="#666666" d="M296.37,-722.52C298.45,-712.04 301.11,-699.6 304,-688.5 304.59,-686.23 305.23,-683.9 305.9,-681.56"/>
<polygon fill="#666666" stroke="#666666" points="309.21,-682.72 308.73,-672.14 302.5,-680.71 309.21,-682.72"/>
<text text-anchor="middle" x="338.5" y="-691.7" font-family="Times,serif" font-size="14.00">grad: 2.5576</text>
</g>
<!-- node_0x6080000007b8 -->
<g id="node5" class="node">
<title>node_0x6080000007b8</title>
<polygon fill="#fff0f0" stroke="black" stroke-width="2" points="358.25,-723.5 358.25,-771 453.75,-771 453.75,-723.5 358.25,-723.5"/>
<text text-anchor="middle" x="406" y="-753.7" font-family="Arial" font-size="14.00">data: 1.0000</text>
<polyline fill="none" stroke="black" stroke-width="2" points="358.25,-747.25 453.75,-747.25"/>
<text text-anchor="middle" x="406" y="-729.95" font-family="Arial" font-size="14.00">grad: &#45;0.2115</text>
</g>
<!-- node_0x6080000007b8&#45;&gt;node_0x608000000838 -->
<g id="edge7" class="edge">
<title>node_0x6080000007b8&#45;&gt;node_0x608000000838</title>
<path fill="none" stroke="#666666" d="M395.32,-722.59C389.65,-711.52 381.98,-698.59 373,-688.5 369.84,-684.95 366.32,-681.51 362.64,-678.25"/>
<polygon fill="#666666" stroke="#666666" points="364.92,-675.59 354.99,-671.9 360.46,-680.98 364.92,-675.59"/>
<text text-anchor="middle" x="421.73" y="-691.7" font-family="Times,serif" font-size="14.00">grad: &#45;0.2115</text>
</g>
<!-- node_0x6080000008b8 -->
<g id="node6" class="node">
<title>node_0x6080000008b8</title>
<polygon fill="#ff6b6b" stroke="black" stroke-width="2" points="586.12,-723.5 586.12,-771 677.88,-771 677.88,-723.5 586.12,-723.5"/>
<text text-anchor="middle" x="632" y="-753.7" font-family="Arial" font-size="14.00">data: 0.5112</text>
<polyline fill="none" stroke="black" stroke-width="2" points="586.12,-747.25 677.88,-747.25"/>
<text text-anchor="middle" x="632" y="-729.95" font-family="Arial" font-size="14.00">grad: 2.5576</text>
</g>
<!-- node_0x608000000938 -->
<g id="node13" class="node">
<title>node_0x608000000938</title>
<polygon fill="#ff6b6b" stroke="black" stroke-width="2" points="586.12,-521.5 586.12,-569 677.88,-569 677.88,-521.5 586.12,-521.5"/>
<text text-anchor="middle" x="632" y="-551.7" font-family="Arial" font-size="14.00">data: 0.4285</text>
<polyline fill="none" stroke="black" stroke-width="2" points="586.12,-545.25 677.88,-545.25"/>
<text text-anchor="middle" x="632" y="-527.95" font-family="Arial" font-size="14.00">grad: 2.5576</text>
</g>
<!-- node_0x6080000008b8&#45;&gt;node_0x608000000938 -->
<g id="edge9" class="edge">
<title>node_0x6080000008b8&#45;&gt;node_0x608000000938</title>
<path fill="none" stroke="#666666" d="M632,-722.52C632,-687.56 632,-621.99 632,-581.42"/>
<polygon fill="#666666" stroke="#666666" points="635.5,-581.46 632,-571.46 628.5,-581.46 635.5,-581.46"/>
<text text-anchor="middle" x="666.5" y="-641.2" font-family="Times,serif" font-size="14.00">grad: 2.5576</text>
</g>
<!-- node_0x6080000009b8 -->
<g id="node7" class="node">
<title>node_0x6080000009b8</title>
<polygon fill="#ff6b6b" stroke="black" stroke-width="2" points="696.25,-723.5 696.25,-771 791.75,-771 791.75,-723.5 696.25,-723.5"/>
<text text-anchor="middle" x="744" y="-753.7" font-family="Arial" font-size="14.00">data: &#45;0.5621</text>
<polyline fill="none" stroke="black" stroke-width="2" points="696.25,-747.25 791.75,-747.25"/>
<text text-anchor="middle" x="744" y="-729.95" font-family="Arial" font-size="14.00">grad: 3.1712</text>
</g>
<!-- node_0x608000000bb8 -->
<g id="node16" class="node">
<title>node_0x608000000bb8</title>
<polygon fill="#ff6b6b" stroke="black" stroke-width="2" points="695.88,-319.5 695.88,-367 792.12,-367 792.12,-319.5 695.88,-319.5"/>
<text text-anchor="middle" x="744" y="-349.7" font-family="Arial" font-size="14.00">data: 0.5283</text>
<polyline fill="none" stroke="black" stroke-width="2" points="695.88,-343.25 792.12,-343.25"/>
<text text-anchor="middle" x="744" y="-325.95" font-family="Arial" font-size="14.00">grad: &#45;3.3741</text>
</g>
<!-- node_0x6080000009b8&#45;&gt;node_0x608000000bb8 -->
<g id="edge12" class="edge">
<title>node_0x6080000009b8&#45;&gt;node_0x608000000bb8</title>
<path fill="none" stroke="#666666" d="M744,-722.65C744,-702.59 744,-673.03 744,-647.25 744,-647.25 744,-647.25 744,-443.25 744,-422 744,-398.19 744,-379.24"/>
<polygon fill="#666666" stroke="#666666" points="747.5,-379.37 744,-369.37 740.5,-379.37 747.5,-379.37"/>
<text text-anchor="middle" x="778.5" y="-540.2" font-family="Times,serif" font-size="14.00">grad: 3.1712</text>
</g>
<!-- node_0x608000000ab8 -->
<g id="node8" class="node">
<title>node_0x608000000ab8</title>
<polygon fill="#ff6b6b" stroke="black" stroke-width="2" points="809.88,-723.5 809.88,-771 906.12,-771 906.12,-723.5 809.88,-723.5"/>
<text text-anchor="middle" x="858" y="-753.7" font-family="Arial" font-size="14.00">data: &#45;0.9059</text>
<polyline fill="none" stroke="black" stroke-width="2" points="809.88,-747.25 906.12,-747.25"/>
<text text-anchor="middle" x="858" y="-729.95" font-family="Arial" font-size="14.00">grad: &#45;1.3634</text>
</g>
<!-- node_0x608000000c38 -->
<g id="node17" class="node">
<title>node_0x608000000c38</title>
<polygon fill="#ff6b6b" stroke="black" stroke-width="2" points="809.88,-319.5 809.88,-367 906.12,-367 906.12,-319.5 809.88,-319.5"/>
<text text-anchor="middle" x="858" y="-349.7" font-family="Arial" font-size="14.00">data: &#45;0.3661</text>
<polyline fill="none" stroke="black" stroke-width="2" points="809.88,-343.25 906.12,-343.25"/>
<text text-anchor="middle" x="858" y="-325.95" font-family="Arial" font-size="14.00">grad: &#45;3.3741</text>
</g>
<!-- node_0x608000000ab8&#45;&gt;node_0x608000000c38 -->
<g id="edge14" class="edge">
<title>node_0x608000000ab8&#45;&gt;node_0x608000000c38</title>
<path fill="none" stroke="#666666" d="M858,-722.65C858,-702.59 858,-673.03 858,-647.25 858,-647.25 858,-647.25 858,-443.25 858,-422 858,-398.19 858,-379.24"/>
<polygon fill="#666666" stroke="#666666" points="861.5,-379.37 858,-369.37 854.5,-379.37 861.5,-379.37"/>
<text text-anchor="middle" x="894.75" y="-540.2" font-family="Times,serif" font-size="14.00">grad: &#45;1.3634</text>
</g>
<!-- node_0x608000000d38 -->
<g id="node9" class="node">
<title>node_0x608000000d38</title>
<polygon fill="#ff6b6b" stroke="black" stroke-width="2" points="923.88,-723.5 923.88,-771 1020.12,-771 1020.12,-723.5 923.88,-723.5"/>
<text text-anchor="middle" x="972" y="-753.7" font-family="Arial" font-size="14.00">data: 0.0655</text>
<polyline fill="none" stroke="black" stroke-width="2" points="923.88,-747.25 1020.12,-747.25"/>
<text text-anchor="middle" x="972" y="-729.95" font-family="Arial" font-size="14.00">grad: &#45;3.3741</text>
</g>
<!-- node_0x608000000db8 -->
<g id="node19" class="node">
<title>node_0x608000000db8</title>
<polygon fill="#ff6b6b" stroke="black" stroke-width="2" points="868.88,-117.5 868.88,-165 965.12,-165 965.12,-117.5 868.88,-117.5"/>
<text text-anchor="middle" x="917" y="-147.7" font-family="Arial" font-size="14.00">data: 0.2278</text>
<polyline fill="none" stroke="black" stroke-width="2" points="868.88,-141.25 965.12,-141.25"/>
<text text-anchor="middle" x="917" y="-123.95" font-family="Arial" font-size="14.00">grad: &#45;3.3741</text>
</g>
<!-- node_0x608000000d38&#45;&gt;node_0x608000000db8 -->
<g id="edge19" class="edge">
<title>node_0x608000000d38&#45;&gt;node_0x608000000db8</title>
<path fill="none" stroke="#666666" d="M969.77,-722.67C968.06,-702.63 966,-673.08 966,-647.25 966,-647.25 966,-647.25 966,-241.25 966,-214.84 963.98,-207.04 952,-183.5 950.52,-180.6 948.8,-177.72 946.93,-174.92"/>
<polygon fill="#666666" stroke="#666666" points="949.81,-172.92 941.04,-166.98 944.19,-177.09 949.81,-172.92"/>
<text text-anchor="middle" x="1002.75" y="-439.2" font-family="Times,serif" font-size="14.00">grad: &#45;3.3741</text>
</g>
<!-- node_0x6080000005b8&#45;&gt;node_0x6080000006b8 -->
<g id="edge4" class="edge">
<title>node_0x6080000005b8&#45;&gt;node_0x6080000006b8</title>
<path fill="none" stroke="#666666" d="M243.2,-621.63C248.74,-618.84 254.44,-616.21 260,-614 326.57,-587.55 406.84,-568.45 460.42,-557.4"/>
<polygon fill="#666666" stroke="#666666" points="460.84,-560.89 469.94,-555.47 459.45,-554.03 460.84,-560.89"/>
<text text-anchor="middle" x="371.28" y="-590.7" font-family="Times,serif" font-size="14.00">grad: 0.2212</text>
</g>
<!-- node_0x608000000838&#45;&gt;node_0x608000000938 -->
<g id="edge8" class="edge">
<title>node_0x608000000838&#45;&gt;node_0x608000000938</title>
<path fill="none" stroke="#666666" d="M365.61,-634.19C429.72,-619.33 538.86,-592.99 577,-577.5 579.02,-576.68 581.06,-575.8 583.1,-574.87"/>
<polygon fill="#666666" stroke="#666666" points="584.46,-578.1 591.91,-570.57 581.39,-571.81 584.46,-578.1"/>
<text text-anchor="middle" x="580.46" y="-590.7" font-family="Times,serif" font-size="14.00">grad: 2.5576</text>
</g>
<!-- node_0x608000000a38 -->
<g id="node14" class="node">
<title>node_0x608000000a38</title>
<polygon fill="#ff6b6b" stroke="black" stroke-width="2" points="495.25,-420.5 495.25,-468 590.75,-468 590.75,-420.5 495.25,-420.5"/>
<text text-anchor="middle" x="543" y="-450.7" font-family="Arial" font-size="14.00">data: &#45;0.9399</text>
<polyline fill="none" stroke="black" stroke-width="2" points="495.25,-444.25 590.75,-444.25"/>
<text text-anchor="middle" x="543" y="-426.95" font-family="Arial" font-size="14.00">grad: 1.8965</text>
</g>
<!-- node_0x6080000006b8&#45;&gt;node_0x608000000a38 -->
<g id="edge10" class="edge">
<title>node_0x6080000006b8&#45;&gt;node_0x608000000a38</title>
<path fill="none" stroke="#666666" d="M525.51,-520.54C528.35,-508.29 531.88,-493.13 535.01,-479.62"/>
<polygon fill="#666666" stroke="#666666" points="538.34,-480.78 537.19,-470.24 531.52,-479.19 538.34,-480.78"/>
<text text-anchor="middle" x="567.38" y="-489.7" font-family="Times,serif" font-size="14.00">grad: 0.2212</text>
</g>
<!-- node_0x608000000b38 -->
<g id="node15" class="node">
<title>node_0x608000000b38</title>
<polygon fill="#ff6b6b" stroke="black" stroke-width="2" points="609.12,-420.5 609.12,-468 700.88,-468 700.88,-420.5 609.12,-420.5"/>
<text text-anchor="middle" x="655" y="-450.7" font-family="Arial" font-size="14.00">data: 0.4041</text>
<polyline fill="none" stroke="black" stroke-width="2" points="609.12,-444.25 700.88,-444.25"/>
<text text-anchor="middle" x="655" y="-426.95" font-family="Arial" font-size="14.00">grad: 3.0567</text>
</g>
<!-- node_0x608000000938&#45;&gt;node_0x608000000b38 -->
<g id="edge11" class="edge">
<title>node_0x608000000938&#45;&gt;node_0x608000000b38</title>
<path fill="none" stroke="#666666" d="M637.51,-520.54C640.35,-508.29 643.88,-493.13 647.01,-479.62"/>
<polygon fill="#666666" stroke="#666666" points="650.34,-480.78 649.19,-470.24 643.52,-479.19 650.34,-480.78"/>
<text text-anchor="middle" x="679.38" y="-489.7" font-family="Times,serif" font-size="14.00">grad: 2.5576</text>
</g>
<!-- node_0x608000000a38&#45;&gt;node_0x608000000bb8 -->
<g id="edge13" class="edge">
<title>node_0x608000000a38&#45;&gt;node_0x608000000bb8</title>
<path fill="none" stroke="#666666" d="M547.45,-419.67C550.87,-407.8 556.81,-394.13 567,-385.5 599.29,-358.14 646.33,-348.13 683.8,-344.79"/>
<polygon fill="#666666" stroke="#666666" points="683.87,-348.3 693.59,-344.07 683.36,-341.32 683.87,-348.3"/>
<text text-anchor="middle" x="601.5" y="-388.7" font-family="Times,serif" font-size="14.00">grad: 1.8965</text>
</g>
<!-- node_0x608000000b38&#45;&gt;node_0x608000000c38 -->
<g id="edge15" class="edge">
<title>node_0x608000000b38&#45;&gt;node_0x608000000c38</title>
<path fill="none" stroke="#666666" d="M701.61,-419.73C723.67,-408.88 750.49,-396.09 775,-385.5 786.37,-380.59 789.77,-380.71 801,-375.5 802.72,-374.7 804.47,-373.87 806.22,-373.02"/>
<polygon fill="#666666" stroke="#666666" points="807.6,-376.24 814.95,-368.62 804.45,-369.99 807.6,-376.24"/>
<text text-anchor="middle" x="809.5" y="-388.7" font-family="Times,serif" font-size="14.00">grad: 3.0567</text>
</g>
<!-- node_0x608000000cb8 -->
<g id="node18" class="node">
<title>node_0x608000000cb8</title>
<polygon fill="#ff6b6b" stroke="black" stroke-width="2" points="809.88,-218.5 809.88,-266 906.12,-266 906.12,-218.5 809.88,-218.5"/>
<text text-anchor="middle" x="858" y="-248.7" font-family="Arial" font-size="14.00">data: 0.1622</text>
<polyline fill="none" stroke="black" stroke-width="2" points="809.88,-242.25 906.12,-242.25"/>
<text text-anchor="middle" x="858" y="-224.95" font-family="Arial" font-size="14.00">grad: &#45;3.3741</text>
</g>
<!-- node_0x608000000bb8&#45;&gt;node_0x608000000cb8 -->
<g id="edge16" class="edge">
<title>node_0x608000000bb8&#45;&gt;node_0x608000000cb8</title>
<path fill="none" stroke="#666666" d="M755.28,-318.58C761.54,-307.26 770.15,-294.1 780.5,-284.5 786.26,-279.15 792.84,-274.29 799.69,-269.93"/>
<polygon fill="#666666" stroke="#666666" points="801.03,-273.2 807.82,-265.07 797.44,-267.19 801.03,-273.2"/>
<text text-anchor="middle" x="817.25" y="-287.7" font-family="Times,serif" font-size="14.00">grad: &#45;3.3741</text>
</g>
<!-- node_0x608000000c38&#45;&gt;node_0x608000000cb8 -->
<g id="edge17" class="edge">
<title>node_0x608000000c38&#45;&gt;node_0x608000000cb8</title>
<path fill="none" stroke="#666666" d="M858,-318.54C858,-306.41 858,-291.43 858,-278.03"/>
<polygon fill="#666666" stroke="#666666" points="861.5,-278.28 858,-268.28 854.5,-278.28 861.5,-278.28"/>
<text text-anchor="middle" x="894.75" y="-287.7" font-family="Times,serif" font-size="14.00">grad: &#45;3.3741</text>
</g>
<!-- node_0x608000000cb8&#45;&gt;node_0x608000000db8 -->
<g id="edge18" class="edge">
<title>node_0x608000000cb8&#45;&gt;node_0x608000000db8</title>
<path fill="none" stroke="#666666" d="M864.02,-217.51C867.36,-206.67 872.15,-193.96 878.5,-183.5 880.38,-180.4 882.52,-177.34 884.81,-174.36"/>
<polygon fill="#666666" stroke="#666666" points="887.3,-176.84 891.03,-166.92 881.93,-172.35 887.3,-176.84"/>
<text text-anchor="middle" x="915.25" y="-186.7" font-family="Times,serif" font-size="14.00">grad: &#45;3.3741</text>
</g>
<!-- node_0x6070000002c0 -->
<g id="node20" class="node">
<title>node_0x6070000002c0</title>
<polygon fill="#ff6b6b" stroke="black" stroke-width="2" points="868.88,-16.5 868.88,-64 965.12,-64 965.12,-16.5 868.88,-16.5"/>
<text text-anchor="middle" x="917" y="-46.7" font-family="Arial" font-size="14.00">data: 0.2239</text>
<polyline fill="none" stroke="black" stroke-width="2" points="868.88,-40.25 965.12,-40.25"/>
<text text-anchor="middle" x="917" y="-22.95" font-family="Arial" font-size="14.00">grad: &#45;3.5522</text>
</g>
<!-- node_0x608000000db8&#45;&gt;node_0x6070000002c0 -->
<g id="edge1" class="edge">
<title>node_0x608000000db8&#45;&gt;node_0x6070000002c0</title>
<path fill="none" stroke="#666666" d="M917,-116.54C917,-104.41 917,-89.43 917,-76.03"/>
<polygon fill="#666666" stroke="#666666" points="920.5,-76.28 917,-66.28 913.5,-76.28 920.5,-76.28"/>
<text text-anchor="middle" x="953.75" y="-85.7" font-family="Times,serif" font-size="14.00">grad: &#45;3.3741</text>
</g>
</g>
</svg>
