<?xml version="1.0" encoding="UTF-8" standalone="no"?>
<!DOCTYPE svg PUBLIC "-//W3C//DTD SVG 1.1//EN"
 "http://www.w3.org/Graphics/SVG/1.1/DTD/svg11.dtd">
<!-- Generated by graphviz version 12.2.1 (20241206.2353)
 -->
<!-- Title: ComputationalGraph Pages: 1 -->
<svg width="1052pt" height="796pt"
 viewBox="0.00 0.00 1051.50 795.50" xmlns="http://www.w3.org/2000/svg" xmlns:xlink="http://www.w3.org/1999/xlink">
<g id="graph0" class="graph" transform="scale(1 1) rotate(0) translate(4 791.5)">
<title>ComputationalGraph</title>
<polygon fill="white" stroke="none" points="-4,4 -4,-791.5 1047.5,-791.5 1047.5,4 -4,4"/>
<g id="clust1" class="cluster">
<title>cluster_layer_0</title>
</g>
<g id="clust2" class="cluster">
<title>cluster_layer_1</title>
</g>
<g id="clust3" class="cluster">
<title>cluster_layer_2</title>
</g>
<g id="clust4" class="cluster">
<title>cluster_layer_3</title>
</g>
<g id="clust5" class="cluster">
<title>cluster_layer_4</title>
</g>
<g id="clust6" class="cluster">
<title>cluster_layer_5</title>
</g>
<g id="clust7" class="cluster">
<title>cluster_layer_6</title>
</g>
<g id="clust8" class="cluster">
<title>cluster_layer_7</title>
</g>
<!-- node_0x608000000e38 -->
<g id="node1" class="node">
<title>node_0x608000000e38</title>
<polygon fill="#fff0f0" stroke="black" stroke-width="2" points="16.25,-723.5 16.25,-771 111.75,-771 111.75,-723.5 16.25,-723.5"/>
<text text-anchor="middle" x="64" y="-753.7" font-family="Arial" font-size="14.00">data: &#45;0.7369</text>
<polyline fill="none" stroke="black" stroke-width="2" points="16.25,-747.25 111.75,-747.25"/>
<text text-anchor="middle" x="64" y="-729.95" font-family="Arial" font-size="14.00">grad: 0.2104</text>
</g>
<!-- node_0x608000000f38 -->
<g id="node10" class="node">
<title>node_0x608000000f38</title>
<polygon fill="#fff0f0" stroke="black" stroke-width="2" points="144.25,-622.5 144.25,-670 239.75,-670 239.75,-622.5 144.25,-622.5"/>
<text text-anchor="middle" x="192" y="-652.7" font-family="Arial" font-size="14.00">data: &#45;1.4738</text>
<polyline fill="none" stroke="black" stroke-width="2" points="144.25,-646.25 239.75,-646.25"/>
<text text-anchor="middle" x="192" y="-628.95" font-family="Arial" font-size="14.00">grad: 0.1052</text>
</g>
<!-- node_0x608000000e38&#45;&gt;node_0x608000000f38 -->
<g id="edge2" class="edge">
<title>node_0x608000000e38&#45;&gt;node_0x608000000f38</title>
<path fill="none" stroke="#666666" d="M79.69,-722.64C88.04,-711.32 99.03,-698.16 111,-688.5 117.82,-682.99 125.49,-677.93 133.33,-673.39"/>
<polygon fill="#666666" stroke="#666666" points="134.89,-676.52 141.96,-668.64 131.52,-670.39 134.89,-676.52"/>
<text text-anchor="middle" x="145.5" y="-691.7" font-family="Times,serif" font-size="14.00">grad: 0.2104</text>
</g>
<!-- node_0x608000000eb8 -->
<g id="node2" class="node">
<title>node_0x608000000eb8</title>
<polygon fill="#f8f8f8" stroke="black" stroke-width="2" points="129.88,-723.5 129.88,-771 226.12,-771 226.12,-723.5 129.88,-723.5"/>
<text text-anchor="middle" x="178" y="-753.7" font-family="Arial" font-size="14.00">data: 2.0000</text>
<polyline fill="none" stroke="black" stroke-width="2" points="129.88,-747.25 226.12,-747.25"/>
<text text-anchor="middle" x="178" y="-729.95" font-family="Arial" font-size="14.00">grad: &#45;0.0775</text>
</g>
<!-- node_0x608000000eb8&#45;&gt;node_0x608000000f38 -->
<g id="edge3" class="edge">
<title>node_0x608000000eb8&#45;&gt;node_0x608000000f38</title>
<path fill="none" stroke="#666666" d="M181.35,-722.54C183.07,-710.41 185.19,-695.43 187.08,-682.03"/>
<polygon fill="#666666" stroke="#666666" points="190.53,-682.66 188.46,-672.27 183.6,-681.68 190.53,-682.66"/>
<text text-anchor="middle" x="222.59" y="-691.7" font-family="Times,serif" font-size="14.00">grad: &#45;0.0775</text>
</g>
<!-- node_0x608000000fb8 -->
<g id="node3" class="node">
<title>node_0x608000000fb8</title>
<polygon fill="#fff0f0" stroke="black" stroke-width="2" points="476.25,-723.5 476.25,-771 571.75,-771 571.75,-723.5 476.25,-723.5"/>
<text text-anchor="middle" x="524" y="-753.7" font-family="Arial" font-size="14.00">data: &#45;1.0000</text>
<polyline fill="none" stroke="black" stroke-width="2" points="476.25,-747.25 571.75,-747.25"/>
<text text-anchor="middle" x="524" y="-729.95" font-family="Arial" font-size="14.00">grad: 0.1052</text>
</g>
<!-- node_0x608000001038 -->
<g id="node12" class="node">
<title>node_0x608000001038</title>
<polygon fill="#fff0f0" stroke="black" stroke-width="2" points="476.25,-521.5 476.25,-569 571.75,-569 571.75,-521.5 476.25,-521.5"/>
<text text-anchor="middle" x="524" y="-551.7" font-family="Arial" font-size="14.00">data: &#45;2.4738</text>
<polyline fill="none" stroke="black" stroke-width="2" points="476.25,-545.25 571.75,-545.25"/>
<text text-anchor="middle" x="524" y="-527.95" font-family="Arial" font-size="14.00">grad: 0.1052</text>
</g>
<!-- node_0x608000000fb8&#45;&gt;node_0x608000001038 -->
<g id="edge5" class="edge">
<title>node_0x608000000fb8&#45;&gt;node_0x608000001038</title>
<path fill="none" stroke="#666666" d="M524,-722.52C524,-687.56 524,-621.99 524,-581.42"/>
<polygon fill="#666666" stroke="#666666" points="527.5,-581.46 524,-571.46 520.5,-581.46 527.5,-581.46"/>
<text text-anchor="middle" x="558.5" y="-641.2" font-family="Times,serif" font-size="14.00">grad: 0.1052</text>
</g>
<!-- node_0x6080000010b8 -->
<g id="node4" class="node">
<title>node_0x6080000010b8</title>
<polygon fill="#ff6b6b" stroke="black" stroke-width="2" points="244.38,-723.5 244.38,-771 343.62,-771 343.62,-723.5 244.38,-723.5"/>
<text text-anchor="middle" x="294" y="-753.7" font-family="Arial" font-size="14.00">data: &#45;0.0827</text>
<polyline fill="none" stroke="black" stroke-width="2" points="244.38,-747.25 343.62,-747.25"/>
<text text-anchor="middle" x="294" y="-729.95" font-family="Arial" font-size="14.00">grad: 10.7693</text>
</g>
<!-- node_0x6080000011b8 -->
<g id="node11" class="node">
<title>node_0x6080000011b8</title>
<polygon fill="#ff6b6b" stroke="black" stroke-width="2" points="258.25,-622.5 258.25,-670 353.75,-670 353.75,-622.5 258.25,-622.5"/>
<text text-anchor="middle" x="306" y="-652.7" font-family="Arial" font-size="14.00">data: &#45;0.1654</text>
<polyline fill="none" stroke="black" stroke-width="2" points="258.25,-646.25 353.75,-646.25"/>
<text text-anchor="middle" x="306" y="-628.95" font-family="Arial" font-size="14.00">grad: 5.3847</text>
</g>
<!-- node_0x6080000010b8&#45;&gt;node_0x6080000011b8 -->
<g id="edge6" class="edge">
<title>node_0x6080000010b8&#45;&gt;node_0x6080000011b8</title>
<path fill="none" stroke="#666666" d="M296.87,-722.54C298.34,-710.41 300.16,-695.43 301.78,-682.03"/>
<polygon fill="#666666" stroke="#666666" points="305.24,-682.62 302.97,-672.27 298.29,-681.78 305.24,-682.62"/>
<text text-anchor="middle" x="338.59" y="-691.7" font-family="Times,serif" font-size="14.00">grad: 10.7693</text>
</g>
<!-- node_0x608000001138 -->
<g id="node5" class="node">
<title>node_0x608000001138</title>
<polygon fill="#fff0f0" stroke="black" stroke-width="2" points="361.88,-723.5 361.88,-771 458.12,-771 458.12,-723.5 361.88,-723.5"/>
<text text-anchor="middle" x="410" y="-753.7" font-family="Arial" font-size="14.00">data: 2.0000</text>
<polyline fill="none" stroke="black" stroke-width="2" points="361.88,-747.25 458.12,-747.25"/>
<text text-anchor="middle" x="410" y="-729.95" font-family="Arial" font-size="14.00">grad: &#45;0.4453</text>
</g>
<!-- node_0x608000001138&#45;&gt;node_0x6080000011b8 -->
<g id="edge7" class="edge">
<title>node_0x608000001138&#45;&gt;node_0x6080000011b8</title>
<path fill="none" stroke="#666666" d="M401.47,-722.62C396.51,-711.3 389.37,-698.15 380,-688.5 375.23,-683.58 369.74,-679.09 363.95,-675.03"/>
<polygon fill="#666666" stroke="#666666" points="366.24,-672.34 355.95,-669.83 362.43,-678.21 366.24,-672.34"/>
<text text-anchor="middle" x="428.56" y="-691.7" font-family="Times,serif" font-size="14.00">grad: &#45;0.4453</text>
</g>
<!-- node_0x608000001238 -->
<g id="node6" class="node">
<title>node_0x608000001238</title>
<polygon fill="#ff6b6b" stroke="black" stroke-width="2" points="590.12,-723.5 590.12,-771 681.88,-771 681.88,-723.5 590.12,-723.5"/>
<text text-anchor="middle" x="636" y="-753.7" font-family="Arial" font-size="14.00">data: 0.5112</text>
<polyline fill="none" stroke="black" stroke-width="2" points="590.12,-747.25 681.88,-747.25"/>
<text text-anchor="middle" x="636" y="-729.95" font-family="Arial" font-size="14.00">grad: 5.3847</text>
</g>
<!-- node_0x6080000012b8 -->
<g id="node13" class="node">
<title>node_0x6080000012b8</title>
<polygon fill="#ff6b6b" stroke="black" stroke-width="2" points="590.12,-521.5 590.12,-569 681.88,-569 681.88,-521.5 590.12,-521.5"/>
<text text-anchor="middle" x="636" y="-551.7" font-family="Arial" font-size="14.00">data: 0.3458</text>
<polyline fill="none" stroke="black" stroke-width="2" points="590.12,-545.25 681.88,-545.25"/>
<text text-anchor="middle" x="636" y="-527.95" font-family="Arial" font-size="14.00">grad: 5.3847</text>
</g>
<!-- node_0x608000001238&#45;&gt;node_0x6080000012b8 -->
<g id="edge9" class="edge">
<title>node_0x608000001238&#45;&gt;node_0x6080000012b8</title>
<path fill="none" stroke="#666666" d="M636,-722.52C636,-687.56 636,-621.99 636,-581.42"/>
<polygon fill="#666666" stroke="#666666" points="639.5,-581.46 636,-571.46 632.5,-581.46 639.5,-581.46"/>
<text text-anchor="middle" x="670.5" y="-641.2" font-family="Times,serif" font-size="14.00">grad: 5.3847</text>
</g>
<!-- node_0x608000001338 -->
<g id="node7" class="node">
<title>node_0x608000001338</title>
<polygon fill="#ff6b6b" stroke="black" stroke-width="2" points="700.25,-723.5 700.25,-771 795.75,-771 795.75,-723.5 700.25,-723.5"/>
<text text-anchor="middle" x="748" y="-753.7" font-family="Arial" font-size="14.00">data: &#45;0.5621</text>
<polyline fill="none" stroke="black" stroke-width="2" points="700.25,-747.25 795.75,-747.25"/>
<text text-anchor="middle" x="748" y="-729.95" font-family="Arial" font-size="14.00">grad: 6.5893</text>
</g>
<!-- node_0x608000001538 -->
<g id="node16" class="node">
<title>node_0x608000001538</title>
<polygon fill="#ff6b6b" stroke="black" stroke-width="2" points="699.88,-319.5 699.88,-367 796.12,-367 796.12,-319.5 699.88,-319.5"/>
<text text-anchor="middle" x="748" y="-349.7" font-family="Arial" font-size="14.00">data: 0.5542</text>
<polyline fill="none" stroke="black" stroke-width="2" points="699.88,-343.25 796.12,-343.25"/>
<text text-anchor="middle" x="748" y="-325.95" font-family="Arial" font-size="14.00">grad: &#45;6.6835</text>
</g>
<!-- node_0x608000001338&#45;&gt;node_0x608000001538 -->
<g id="edge12" class="edge">
<title>node_0x608000001338&#45;&gt;node_0x608000001538</title>
<path fill="none" stroke="#666666" d="M748,-722.65C748,-702.59 748,-673.03 748,-647.25 748,-647.25 748,-647.25 748,-443.25 748,-422 748,-398.19 748,-379.24"/>
<polygon fill="#666666" stroke="#666666" points="751.5,-379.37 748,-369.37 744.5,-379.37 751.5,-379.37"/>
<text text-anchor="middle" x="782.5" y="-540.2" font-family="Times,serif" font-size="14.00">grad: 6.5893</text>
</g>
<!-- node_0x608000001438 -->
<g id="node8" class="node">
<title>node_0x608000001438</title>
<polygon fill="#ff6b6b" stroke="black" stroke-width="2" points="813.88,-723.5 813.88,-771 910.12,-771 910.12,-723.5 813.88,-723.5"/>
<text text-anchor="middle" x="862" y="-753.7" font-family="Arial" font-size="14.00">data: &#45;0.9059</text>
<polyline fill="none" stroke="black" stroke-width="2" points="813.88,-747.25 910.12,-747.25"/>
<text text-anchor="middle" x="862" y="-729.95" font-family="Arial" font-size="14.00">grad: &#45;2.2233</text>
</g>
<!-- node_0x6080000015b8 -->
<g id="node17" class="node">
<title>node_0x6080000015b8</title>
<polygon fill="#ff6b6b" stroke="black" stroke-width="2" points="813.88,-319.5 813.88,-367 910.12,-367 910.12,-319.5 813.88,-319.5"/>
<text text-anchor="middle" x="862" y="-349.7" font-family="Arial" font-size="14.00">data: &#45;0.3014</text>
<polyline fill="none" stroke="black" stroke-width="2" points="813.88,-343.25 910.12,-343.25"/>
<text text-anchor="middle" x="862" y="-325.95" font-family="Arial" font-size="14.00">grad: &#45;6.6835</text>
</g>
<!-- node_0x608000001438&#45;&gt;node_0x6080000015b8 -->
<g id="edge14" class="edge">
<title>node_0x608000001438&#45;&gt;node_0x6080000015b8</title>
<path fill="none" stroke="#666666" d="M862,-722.65C862,-702.59 862,-673.03 862,-647.25 862,-647.25 862,-647.25 862,-443.25 862,-422 862,-398.19 862,-379.24"/>
<polygon fill="#666666" stroke="#666666" points="865.5,-379.37 862,-369.37 858.5,-379.37 865.5,-379.37"/>
<text text-anchor="middle" x="898.75" y="-540.2" font-family="Times,serif" font-size="14.00">grad: &#45;2.2233</text>
</g>
<!-- node_0x6080000016b8 -->
<g id="node9" class="node">
<title>node_0x6080000016b8</title>
<polygon fill="#ff6b6b" stroke="black" stroke-width="2" points="927.88,-723.5 927.88,-771 1024.12,-771 1024.12,-723.5 927.88,-723.5"/>
<text text-anchor="middle" x="976" y="-753.7" font-family="Arial" font-size="14.00">data: 0.0655</text>
<polyline fill="none" stroke="black" stroke-width="2" points="927.88,-747.25 1024.12,-747.25"/>
<text text-anchor="middle" x="976" y="-729.95" font-family="Arial" font-size="14.00">grad: &#45;6.6835</text>
</g>
<!-- node_0x608000001738 -->
<g id="node19" class="node">
<title>node_0x608000001738</title>
<polygon fill="#ff6b6b" stroke="black" stroke-width="2" points="872.88,-117.5 872.88,-165 969.12,-165 969.12,-117.5 872.88,-117.5"/>
<text text-anchor="middle" x="921" y="-147.7" font-family="Arial" font-size="14.00">data: 0.3183</text>
<polyline fill="none" stroke="black" stroke-width="2" points="872.88,-141.25 969.12,-141.25"/>
<text text-anchor="middle" x="921" y="-123.95" font-family="Arial" font-size="14.00">grad: &#45;6.6835</text>
</g>
<!-- node_0x6080000016b8&#45;&gt;node_0x608000001738 -->
<g id="edge19" class="edge">
<title>node_0x6080000016b8&#45;&gt;node_0x608000001738</title>
<path fill="none" stroke="#666666" d="M973.77,-722.67C972.06,-702.63 970,-673.08 970,-647.25 970,-647.25 970,-647.25 970,-241.25 970,-214.84 967.98,-207.04 956,-183.5 954.52,-180.6 952.8,-177.72 950.93,-174.92"/>
<polygon fill="#666666" stroke="#666666" points="953.81,-172.92 945.04,-166.98 948.19,-177.09 953.81,-172.92"/>
<text text-anchor="middle" x="1006.75" y="-439.2" font-family="Times,serif" font-size="14.00">grad: &#45;6.6835</text>
</g>
<!-- node_0x608000000f38&#45;&gt;node_0x608000001038 -->
<g id="edge4" class="edge">
<title>node_0x608000000f38&#45;&gt;node_0x608000001038</title>
<path fill="none" stroke="#666666" d="M232.17,-621.56C237.72,-618.78 243.43,-616.17 249,-614 320.69,-586.07 407.48,-566.97 464.13,-556.34"/>
<polygon fill="#666666" stroke="#666666" points="464.7,-559.8 473.9,-554.54 463.43,-552.91 464.7,-559.8"/>
<text text-anchor="middle" x="357.14" y="-590.7" font-family="Times,serif" font-size="14.00">grad: 0.1052</text>
</g>
<!-- node_0x6080000011b8&#45;&gt;node_0x6080000012b8 -->
<g id="edge8" class="edge">
<title>node_0x6080000011b8&#45;&gt;node_0x6080000012b8</title>
<path fill="none" stroke="#666666" d="M354.58,-634.97C421.96,-620.42 540.12,-593.79 581,-577.5 583.03,-576.69 585.07,-575.82 587.12,-574.9"/>
<polygon fill="#666666" stroke="#666666" points="588.46,-578.14 595.93,-570.63 585.41,-571.84 588.46,-578.14"/>
<text text-anchor="middle" x="582.68" y="-590.7" font-family="Times,serif" font-size="14.00">grad: 5.3847</text>
</g>
<!-- node_0x6080000013b8 -->
<g id="node14" class="node">
<title>node_0x6080000013b8</title>
<polygon fill="#ff6b6b" stroke="black" stroke-width="2" points="499.25,-420.5 499.25,-468 594.75,-468 594.75,-420.5 499.25,-420.5"/>
<text text-anchor="middle" x="547" y="-450.7" font-family="Arial" font-size="14.00">data: &#45;0.9859</text>
<polyline fill="none" stroke="black" stroke-width="2" points="499.25,-444.25 594.75,-444.25"/>
<text text-anchor="middle" x="547" y="-426.95" font-family="Arial" font-size="14.00">grad: 3.7567</text>
</g>
<!-- node_0x608000001038&#45;&gt;node_0x6080000013b8 -->
<g id="edge10" class="edge">
<title>node_0x608000001038&#45;&gt;node_0x6080000013b8</title>
<path fill="none" stroke="#666666" d="M529.51,-520.54C532.35,-508.29 535.88,-493.13 539.01,-479.62"/>
<polygon fill="#666666" stroke="#666666" points="542.34,-480.78 541.19,-470.24 535.52,-479.19 542.34,-480.78"/>
<text text-anchor="middle" x="571.38" y="-489.7" font-family="Times,serif" font-size="14.00">grad: 0.1052</text>
</g>
<!-- node_0x6080000014b8 -->
<g id="node15" class="node">
<title>node_0x6080000014b8</title>
<polygon fill="#ff6b6b" stroke="black" stroke-width="2" points="613.12,-420.5 613.12,-468 704.88,-468 704.88,-420.5 613.12,-420.5"/>
<text text-anchor="middle" x="659" y="-450.7" font-family="Arial" font-size="14.00">data: 0.3327</text>
<polyline fill="none" stroke="black" stroke-width="2" points="613.12,-444.25 704.88,-444.25"/>
<text text-anchor="middle" x="659" y="-426.95" font-family="Arial" font-size="14.00">grad: 6.0547</text>
</g>
<!-- node_0x6080000012b8&#45;&gt;node_0x6080000014b8 -->
<g id="edge11" class="edge">
<title>node_0x6080000012b8&#45;&gt;node_0x6080000014b8</title>
<path fill="none" stroke="#666666" d="M641.51,-520.54C644.35,-508.29 647.88,-493.13 651.01,-479.62"/>
<polygon fill="#666666" stroke="#666666" points="654.34,-480.78 653.19,-470.24 647.52,-479.19 654.34,-480.78"/>
<text text-anchor="middle" x="683.38" y="-489.7" font-family="Times,serif" font-size="14.00">grad: 5.3847</text>
</g>
<!-- node_0x6080000013b8&#45;&gt;node_0x608000001538 -->
<g id="edge13" class="edge">
<title>node_0x6080000013b8&#45;&gt;node_0x608000001538</title>
<path fill="none" stroke="#666666" d="M551.45,-419.67C554.87,-407.8 560.81,-394.13 571,-385.5 603.29,-358.14 650.33,-348.13 687.8,-344.79"/>
<polygon fill="#666666" stroke="#666666" points="687.87,-348.3 697.59,-344.07 687.36,-341.32 687.87,-348.3"/>
<text text-anchor="middle" x="605.5" y="-388.7" font-family="Times,serif" font-size="14.00">grad: 3.7567</text>
</g>
<!-- node_0x6080000014b8&#45;&gt;node_0x6080000015b8 -->
<g id="edge15" class="edge">
<title>node_0x6080000014b8&#45;&gt;node_0x6080000015b8</title>
<path fill="none" stroke="#666666" d="M705.61,-419.73C727.67,-408.88 754.49,-396.09 779,-385.5 790.37,-380.59 793.77,-380.71 805,-375.5 806.72,-374.7 808.47,-373.87 810.22,-373.02"/>
<polygon fill="#666666" stroke="#666666" points="811.6,-376.24 818.95,-368.62 808.45,-369.99 811.6,-376.24"/>
<text text-anchor="middle" x="813.5" y="-388.7" font-family="Times,serif" font-size="14.00">grad: 6.0547</text>
</g>
<!-- node_0x608000001638 -->
<g id="node18" class="node">
<title>node_0x608000001638</title>
<polygon fill="#ff6b6b" stroke="black" stroke-width="2" points="813.88,-218.5 813.88,-266 910.12,-266 910.12,-218.5 813.88,-218.5"/>
<text text-anchor="middle" x="862" y="-248.7" font-family="Arial" font-size="14.00">data: 0.2528</text>
<polyline fill="none" stroke="black" stroke-width="2" points="813.88,-242.25 910.12,-242.25"/>
<text text-anchor="middle" x="862" y="-224.95" font-family="Arial" font-size="14.00">grad: &#45;6.6835</text>
</g>
<!-- node_0x608000001538&#45;&gt;node_0x608000001638 -->
<g id="edge16" class="edge">
<title>node_0x608000001538&#45;&gt;node_0x608000001638</title>
<path fill="none" stroke="#666666" d="M759.28,-318.58C765.54,-307.26 774.15,-294.1 784.5,-284.5 790.26,-279.15 796.84,-274.29 803.69,-269.93"/>
<polygon fill="#666666" stroke="#666666" points="805.03,-273.2 811.82,-265.07 801.44,-267.19 805.03,-273.2"/>
<text text-anchor="middle" x="821.25" y="-287.7" font-family="Times,serif" font-size="14.00">grad: &#45;6.6835</text>
</g>
<!-- node_0x6080000015b8&#45;&gt;node_0x608000001638 -->
<g id="edge17" class="edge">
<title>node_0x6080000015b8&#45;&gt;node_0x608000001638</title>
<path fill="none" stroke="#666666" d="M862,-318.54C862,-306.41 862,-291.43 862,-278.03"/>
<polygon fill="#666666" stroke="#666666" points="865.5,-278.28 862,-268.28 858.5,-278.28 865.5,-278.28"/>
<text text-anchor="middle" x="898.75" y="-287.7" font-family="Times,serif" font-size="14.00">grad: &#45;6.6835</text>
</g>
<!-- node_0x608000001638&#45;&gt;node_0x608000001738 -->
<g id="edge18" class="edge">
<title>node_0x608000001638&#45;&gt;node_0x608000001738</title>
<path fill="none" stroke="#666666" d="M868.02,-217.51C871.36,-206.67 876.15,-193.96 882.5,-183.5 884.38,-180.4 886.52,-177.34 888.81,-174.36"/>
<polygon fill="#666666" stroke="#666666" points="891.3,-176.84 895.03,-166.92 885.93,-172.35 891.3,-176.84"/>
<text text-anchor="middle" x="919.25" y="-186.7" font-family="Times,serif" font-size="14.00">grad: &#45;6.6835</text>
</g>
<!-- node_0x607000000410 -->
<g id="node20" class="node">
<title>node_0x607000000410</title>
<polygon fill="#ff6b6b" stroke="black" stroke-width="2" points="872.88,-16.5 872.88,-64 969.12,-64 969.12,-16.5 872.88,-16.5"/>
<text text-anchor="middle" x="921" y="-46.7" font-family="Arial" font-size="14.00">data: 0.3080</text>
<polyline fill="none" stroke="black" stroke-width="2" points="872.88,-40.25 969.12,-40.25"/>
<text text-anchor="middle" x="921" y="-22.95" font-family="Arial" font-size="14.00">grad: &#45;7.3840</text>
</g>
<!-- node_0x608000001738&#45;&gt;node_0x607000000410 -->
<g id="edge1" class="edge">
<title>node_0x608000001738&#45;&gt;node_0x607000000410</title>
<path fill="none" stroke="#666666" d="M921,-116.54C921,-104.41 921,-89.43 921,-76.03"/>
<polygon fill="#666666" stroke="#666666" points="924.5,-76.28 921,-66.28 917.5,-76.28 924.5,-76.28"/>
<text text-anchor="middle" x="957.75" y="-85.7" font-family="Times,serif" font-size="14.00">grad: &#45;6.6835</text>
</g>
</g>
</svg>
